<?xml version="1.0" encoding="UTF-8" standalone="no"?>
<svg
   viewBox="0 0 944.88192 944.88192"
   width="250mm"
   height="250mm"
   version="1.1"
   id="svg68"
   xml:space="preserve"
   xmlns="http://www.w3.org/2000/svg"
   xmlns:svg="http://www.w3.org/2000/svg"><desc
     id="desc1">PPv3.dxf - scale = 0.500000, origin = (0.000000, 0.000000), method = manual</desc><defs
     id="defs4" /><g
     id="layer12"
     style="fill:#ffb0b0;fill-opacity:1;stroke:none;stroke-opacity:1"><path
       style="fill:#b3daff;fill-opacity:1;stroke:none;stroke-width:3.77953;stroke-opacity:1;paint-order:stroke fill markers"
       id="rect68"
       width="944.8819"
       height="944.8819"
       x="0"
       y="0"
       d="m 200,0 h 544.8819 a 200,200 45 0 1 200,200 v 544.8819 a 200,200 135 0 1 -200,200 H 200 a 200,200 45 0 1 -200,-200 V 200 A 200,200 135 0 1 200,0 Z" /></g><g
     id="layer9"><path
       d="M -147.61701,618.89764 V 468.18898 A 181.88976,181.88976 0 0 0 -433.44378,318.92081 v -32.6216 h -77.95275 v 688.58268 a 38.976378,38.976378 0 0 0 77.95275,0 V 768.1658 a 181.88976,181.88976 0 0 0 285.82677,-149.26816 z"
       style="fill:#000000;fill-opacity:1;stroke:#000000;stroke-opacity:1"
       id="path81"
       transform="translate(945.13188,-177.6378)" /><path
       d="M -225.56976,618.89764 V 468.18898 a 103.93701,103.93701 0 0 0 -207.87402,0 v 150.70866 a 103.93701,103.93701 0 0 0 207.87402,0 z"
       style="fill:#ffffff;fill-opacity:1;stroke:#000000"
       id="path80"
       transform="translate(945.13188,-177.6378)" /><path
       d="m -402.25576,533.3565 v 52.74803 a 36.374495,36.374495 0 0 0 72.74899,0 V 533.3565 a 36.374495,36.374495 0 0 0 -72.74899,0 z"
       style="fill:#000000;fill-opacity:1;stroke:#000000"
       id="path79"
       transform="translate(945.13188,-177.6378)" /></g><g
     id="g68"><path
       d="M -433.44378,618.89764 V 468.18898 A 181.88976,181.88976 0 0 0 -719.27055,318.92081 v -32.6216 h -77.95276 v 688.58268 a 38.97638,38.97638 0 0 0 77.95276,0 V 768.1658 a 181.88976,181.88976 0 0 0 285.82677,-149.26816 z"
       style="fill:#000000;fill-opacity:1;stroke:#000000"
       id="path77"
       transform="translate(945.13188,-177.6378)" /><path
       d="m -719.27055,468.18898 v 150.70866 a 103.93701,103.93701 0 0 0 207.87402,0 V 468.18898 a 103.93701,103.93701 0 0 0 -207.87402,0 z"
       style="fill:none;stroke:#000000"
       id="path74"
       transform="translate(945.13188,-177.6378)" /><path
       d="M -511.39653,618.89764 V 468.18898 a 103.93701,103.93701 0 0 0 -207.87402,0 v 150.70866 a 103.93701,103.93701 0 0 0 207.87402,0 z"
       style="fill:#ffffff;fill-opacity:1;stroke:#000000"
       id="path76"
       transform="translate(945.13188,-177.6378)" /><path
       d="m -688.08253,533.3565 v 52.74803 a 36.374495,36.374495 0 0 0 72.74899,0 V 533.3565 a 36.374495,36.374495 0 0 0 -72.74899,0 z"
       style="fill:#000000;fill-opacity:1;stroke:#000000"
       id="path75"
       transform="translate(945.13188,-177.6378)" /></g></svg>
